<?xml version="1.0" standalone="no"?>
<!DOCTYPE svg PUBLIC "-//W3C//DTD SVG 20010904//EN"
 "http://www.w3.org/TR/2001/REC-SVG-20010904/DTD/svg10.dtd">
<svg version="1.0" xmlns="http://www.w3.org/2000/svg"
 width="1120.000000pt" height="1120.000000pt" viewBox="0 0 1120.000000 1120.000000"
 preserveAspectRatio="xMidYMid meet">
<metadata>
Created by potrace 1.11, written by Peter Selinger 2001-2013
</metadata>
<g transform="translate(0.000000,1120.000000) scale(0.100000,-0.100000)"
fill="#000000" stroke="none">
<path d="M305 10414 c33 -20 80 -47 105 -61 25 -13 54 -29 65 -36 37 -23 90
-54 135 -79 52 -29 291 -167 341 -197 19 -11 58 -32 87 -48 28 -15 52 -31 52
-35 0 -4 5 -8 11 -8 10 0 296 -163 381 -216 21 -13 40 -24 44 -24 3 0 18 -8
32 -19 28 -19 131 -77 169 -95 13 -6 23 -14 23 -18 0 -5 4 -8 9 -8 5 0 65 -32
133 -71 67 -40 148 -85 178 -102 30 -16 62 -36 71 -43 8 -8 19 -14 22 -14 4 0
37 -18 73 -40 36 -22 67 -40 69 -40 2 0 76 -43 164 -95 89 -52 163 -95 166
-95 2 0 49 -27 105 -60 56 -33 106 -60 111 -60 5 0 9 -3 9 -7 0 -5 23 -19 50
-32 28 -14 50 -29 50 -35 0 -5 3 -6 6 -3 4 4 19 -1 33 -11 38 -25 60 -38 116
-68 28 -15 52 -29 55 -33 3 -3 18 -13 35 -21 16 -8 89 -50 162 -92 72 -43 134
-78 138 -78 3 0 26 -13 50 -30 24 -16 46 -30 50 -30 3 0 24 -12 48 -27 23 -15
44 -28 47 -28 3 -1 21 -11 40 -23 19 -12 47 -28 63 -35 15 -6 27 -15 27 -19 0
-5 4 -8 9 -8 5 0 80 -41 167 -91 88 -50 179 -103 204 -117 42 -23 89 -51 135
-79 11 -6 85 -49 165 -94 80 -45 147 -86 148 -91 2 -4 12 -8 22 -8 10 0 20 -4
22 -8 2 -5 28 -22 58 -39 30 -17 95 -53 143 -82 49 -28 93 -51 98 -51 5 0 9
-4 9 -10 0 -5 4 -10 9 -10 4 0 48 -23 97 -51 49 -29 150 -87 224 -129 74 -43
151 -87 170 -99 93 -55 86 -53 127 -30 136 76 270 156 281 166 7 7 22 13 32
13 10 0 20 4 22 8 2 5 48 34 103 66 55 31 107 61 115 66 8 6 22 13 30 17 8 4
54 30 101 59 47 28 96 55 107 58 12 4 22 11 22 16 0 5 9 12 20 15 17 5 76 38
170 95 8 5 64 37 125 72 60 35 132 76 160 92 27 16 66 39 86 50 63 36 191 110
238 138 26 14 57 33 71 41 26 15 79 45 133 76 17 10 118 68 222 128 105 61
214 124 243 141 29 18 54 32 56 32 6 0 261 149 274 160 6 6 12 8 12 4 0 -4 8
0 18 8 9 8 42 28 72 44 30 16 57 32 60 35 3 4 30 19 60 35 30 15 57 31 60 34
3 3 37 24 75 45 39 22 79 45 90 52 11 7 27 16 35 20 14 6 111 63 155 90 11 7
31 18 45 25 29 15 372 213 410 237 46 29 125 72 143 78 9 3 17 9 17 14 0 5 4
9 8 9 5 0 76 39 158 86 152 89 453 262 512 296 17 10 49 28 70 39 20 12 39 24
42 28 3 3 28 18 55 32 98 51 140 74 145 80 3 3 28 18 55 33 28 16 70 40 95 54
25 13 56 32 70 41 14 10 46 28 73 42 26 13 47 27 47 31 0 5 5 8 10 8 6 0 34
13 63 30 l52 30 -5355 0 -5355 0 60 -36z"/>
<path d="M34 9972 c57 -101 61 -107 73 -122 6 -8 13 -19 14 -25 1 -5 7 -19 14
-30 7 -11 57 -96 110 -190 54 -93 105 -181 114 -195 9 -14 21 -34 27 -45 35
-65 67 -121 74 -130 4 -5 23 -37 41 -70 18 -33 44 -78 57 -100 14 -22 24 -41
21 -41 -2 -1 3 -10 12 -20 9 -11 31 -46 49 -79 17 -33 47 -85 65 -115 19 -30
34 -61 35 -67 0 -7 3 -13 8 -13 4 0 23 -30 42 -68 19 -37 38 -68 42 -70 4 -2
17 -22 28 -45 30 -60 52 -101 59 -107 3 -3 13 -19 22 -35 41 -77 55 -100 67
-113 7 -7 10 -18 7 -23 -4 -5 -2 -9 2 -9 5 0 20 -21 33 -47 14 -27 28 -49 32
-51 5 -2 8 -10 8 -18 0 -8 5 -14 12 -14 6 0 8 -3 5 -7 -4 -3 -1 -13 7 -22 7
-9 25 -38 39 -64 18 -36 46 -63 104 -105 82 -60 125 -90 152 -107 9 -5 18 -13
21 -16 3 -3 68 -50 145 -104 77 -54 142 -101 145 -104 11 -13 101 -71 110 -71
6 0 10 -3 10 -7 1 -5 30 -28 67 -53 36 -25 74 -53 84 -62 11 -10 21 -18 24
-18 3 0 51 -33 106 -72 56 -40 127 -91 159 -113 77 -53 110 -78 125 -92 7 -7
15 -9 19 -6 3 4 6 1 6 -5 0 -7 7 -12 15 -12 8 0 15 -4 15 -9 0 -5 16 -18 35
-30 20 -11 41 -25 48 -32 6 -6 66 -49 132 -95 66 -47 127 -90 135 -97 8 -7 56
-41 105 -75 253 -176 388 -274 397 -287 5 -6 8 -6 8 0 0 6 3 6 8 -1 4 -5 36
-30 72 -55 36 -24 67 -47 70 -50 3 -3 34 -26 70 -50 36 -24 67 -46 70 -49 3
-4 41 -31 85 -61 111 -77 189 -132 195 -139 3 -3 23 -17 45 -30 22 -13 45 -29
50 -35 6 -6 30 -24 55 -41 25 -16 47 -32 48 -36 2 -5 9 -8 16 -8 6 0 18 -9 26
-20 8 -11 18 -20 22 -20 7 0 389 -269 398 -281 3 -3 15 -9 28 -13 12 -4 22
-11 22 -16 0 -4 24 -23 53 -41 28 -18 54 -36 57 -39 3 -3 28 -22 55 -41 28
-18 52 -37 53 -41 2 -5 8 -8 13 -8 10 0 24 -10 60 -42 10 -10 22 -18 27 -18 4
0 26 -15 49 -33 23 -17 72 -52 108 -77 37 -25 72 -50 78 -56 7 -5 44 -32 82
-59 39 -26 72 -51 75 -55 3 -4 16 -13 29 -20 18 -9 22 -9 16 0 -4 7 -1 16 6
21 8 5 10 9 4 9 -11 0 -13 219 -2 236 3 6 3 14 0 18 -10 10 -10 76 0 76 5 0 5
6 0 13 -11 18 -12 36 -2 43 5 3 6 11 2 17 -10 17 -10 197 1 197 5 0 4 6 -1 13
-10 14 -10 148 1 165 4 7 4 12 -1 12 -10 0 -9 132 1 148 4 7 4 12 -1 12 -10 0
-9 132 1 148 4 7 4 12 -1 12 -10 0 -9 132 1 148 4 7 4 12 -1 12 -10 0 -10 231
0 246 3 6 3 14 0 18 -10 10 -10 76 0 76 5 0 5 6 0 13 -11 18 -12 36 -2 43 5 3
5 13 1 22 -10 20 -9 158 0 168 12 11 -5 23 -132 97 -19 11 -46 27 -60 34 -14
8 -47 28 -75 44 -27 16 -61 35 -75 42 -14 6 -31 17 -38 24 -7 7 -20 13 -28 13
-8 0 -14 5 -14 10 0 6 -4 10 -10 10 -5 0 -33 14 -62 31 -29 18 -78 45 -108 62
-30 17 -67 38 -82 49 -14 10 -30 18 -36 18 -5 0 -15 7 -22 15 -7 8 -21 15 -31
15 -11 0 -19 4 -19 8 0 5 -18 17 -40 28 -22 10 -40 22 -40 27 0 4 -6 7 -12 7
-7 0 -24 9 -38 20 -14 11 -32 20 -42 20 -9 0 -18 4 -20 9 -3 9 -145 91 -158
91 -5 0 -10 4 -12 8 -3 7 -97 66 -108 67 -3 0 -16 8 -30 17 -14 9 -42 24 -62
34 -21 10 -38 21 -38 26 0 4 -4 8 -9 8 -5 0 -49 23 -98 51 -139 81 -155 90
-213 122 -30 16 -61 34 -68 40 -19 15 -95 57 -114 64 -10 3 -18 9 -18 14 0 5
-4 9 -9 9 -6 0 -60 29 -121 65 -133 78 -191 111 -245 139 -22 12 -42 23 -45
26 -10 12 -361 210 -370 210 -6 0 -10 5 -10 10 0 6 -6 10 -14 10 -8 0 -16 3
-18 8 -3 7 -69 45 -115 67 -13 5 -23 13 -23 18 0 4 -5 7 -11 7 -6 0 -37 15
-68 34 -31 19 -74 44 -96 56 -22 13 -53 31 -70 42 -16 10 -38 21 -47 24 -10 4
-18 11 -18 16 0 5 -4 7 -9 4 -5 -3 -14 1 -21 9 -7 8 -16 15 -21 15 -5 0 -28
12 -52 27 -23 15 -47 28 -54 29 -6 1 -22 11 -34 23 -13 12 -26 21 -31 21 -8 0
-240 132 -298 168 -14 9 -27 17 -30 17 -3 0 -30 16 -60 34 -51 32 -74 45 -170
97 -19 11 -40 25 -48 32 -7 6 -17 12 -22 12 -7 0 -94 50 -167 96 -13 8 -25 13
-27 12 -2 -2 -12 4 -22 13 -11 9 -48 32 -84 50 -36 19 -67 36 -70 39 -10 10
-153 90 -161 90 -5 0 -9 3 -9 8 0 4 -23 18 -50 31 -28 14 -50 29 -50 35 0 5
-3 7 -6 3 -3 -3 -30 10 -59 29 -30 19 -57 34 -60 34 -3 0 -32 16 -63 37 -31
20 -63 36 -69 36 -7 0 -13 4 -13 9 0 5 -10 12 -22 17 -13 5 -79 42 -148 82
-69 41 -139 81 -155 89 -17 8 -32 17 -35 20 -3 3 -15 10 -27 17 -19 11 -18 6
11 -45z"/>
<path d="M11155 10007 c-11 -7 -22 -15 -25 -19 -3 -4 -22 -14 -42 -22 -20 -9
-42 -21 -50 -28 -7 -7 -24 -19 -38 -25 -27 -13 -88 -48 -221 -125 -45 -27 -86
-48 -90 -48 -5 0 -9 -4 -9 -9 0 -5 -8 -11 -17 -14 -24 -7 -96 -50 -104 -60 -3
-5 -9 -8 -13 -8 -6 1 -19 -6 -83 -46 -16 -10 -34 -18 -42 -19 -8 -2 -17 -7
-20 -11 -5 -8 -47 -33 -141 -85 -19 -11 -53 -30 -75 -43 -22 -13 -56 -32 -75
-41 -19 -10 -37 -21 -40 -24 -3 -3 -52 -33 -110 -65 -57 -33 -112 -64 -121
-70 -54 -32 -142 -82 -199 -113 -36 -19 -67 -38 -70 -42 -3 -4 -18 -13 -35
-22 -16 -8 -75 -41 -130 -73 -55 -32 -118 -68 -141 -81 -22 -12 -59 -34 -82
-48 -23 -14 -46 -26 -52 -26 -5 0 -10 -4 -10 -9 0 -5 -8 -11 -17 -14 -10 -3
-40 -19 -68 -35 -27 -16 -66 -38 -86 -50 -20 -11 -67 -39 -104 -61 -37 -23
-69 -41 -71 -41 -4 0 -338 -193 -364 -210 -8 -6 -22 -13 -30 -17 -8 -4 -74
-42 -148 -85 -73 -43 -137 -78 -142 -78 -6 0 -10 -5 -10 -12 0 -6 -3 -9 -6 -5
-3 3 -15 -3 -27 -13 -11 -11 -23 -17 -27 -15 -4 3 -13 -2 -20 -10 -7 -8 -16
-15 -20 -15 -4 0 -65 -34 -135 -75 -69 -41 -131 -75 -136 -75 -5 0 -9 -5 -9
-11 0 -5 -4 -8 -9 -4 -5 3 -12 1 -16 -4 -3 -5 -18 -16 -33 -24 -36 -18 -76
-41 -82 -47 -3 -3 -19 -12 -35 -21 -17 -9 -113 -64 -214 -123 -101 -58 -188
-106 -192 -106 -5 0 -9 -4 -9 -8 0 -4 -12 -13 -27 -19 -16 -7 -48 -24 -73 -39
-25 -15 -65 -38 -90 -52 -25 -13 -49 -28 -55 -32 -5 -4 -32 -20 -60 -36 -27
-15 -62 -34 -77 -43 -36 -22 -368 -213 -393 -227 -23 -13 -381 -220 -440 -255
-39 -23 -48 -32 -45 -45 1 -4 -4 -11 -12 -15 -11 -7 -11 -9 1 -9 11 0 11 -3 1
-15 -7 -8 -9 -15 -4 -15 11 0 10 -172 0 -188 -4 -7 -3 -12 1 -12 10 0 10 -111
0 -126 -3 -6 -3 -14 0 -18 10 -10 10 -76 0 -76 -5 0 -5 -6 0 -12 12 -21 12
-38 0 -38 -8 0 -8 -3 -2 -8 12 -8 14 -212 2 -212 -5 0 -5 -5 -1 -12 10 -16 11
-259 1 -265 -4 -2 -4 -10 0 -16 10 -16 10 -77 0 -77 -5 0 -5 -6 0 -12 12 -21
12 -38 0 -38 -8 0 -8 -3 -2 -8 12 -9 14 -212 1 -212 -5 0 -4 -6 1 -12 10 -15
10 -109 -1 -126 -4 -7 -3 -12 1 -12 10 0 10 -111 0 -126 -3 -6 -3 -14 0 -18
11 -10 10 -76 -1 -76 -5 0 -4 -6 1 -12 5 -7 9 -41 7 -75 l-2 -62 27 17 c14 9
31 20 36 25 51 39 105 77 110 77 3 0 11 5 18 10 50 43 73 60 78 60 3 0 19 11
35 25 16 14 35 25 42 25 6 0 12 3 12 8 0 4 17 18 38 32 20 14 39 27 42 30 3 3
31 22 62 43 31 21 69 49 85 63 15 13 33 24 40 24 6 0 13 4 15 8 2 4 25 23 53
42 27 19 54 38 60 42 82 60 310 222 339 241 11 6 27 20 37 29 10 9 28 22 40
29 13 6 28 16 33 20 6 5 58 43 116 83 58 41 110 78 115 83 6 4 30 21 55 38 49
32 117 83 138 103 7 6 17 12 21 12 4 0 17 8 29 18 12 9 44 33 72 52 28 19 71
50 95 68 24 17 49 32 54 32 6 0 11 3 11 8 0 4 17 18 38 32 20 14 42 29 49 35
7 5 18 15 26 21 7 6 23 17 36 23 12 7 30 19 39 26 9 8 71 52 137 99 66 46 128
91 138 100 9 9 19 16 22 16 4 0 110 74 140 98 12 9 127 90 160 112 13 9 36 25
52 37 15 12 73 53 128 92 55 38 105 73 110 78 6 5 64 46 130 93 66 46 122 87
123 92 2 4 9 8 16 8 7 0 21 9 31 20 10 11 24 20 31 20 7 0 14 4 16 8 2 4 39
33 83 64 44 32 85 61 91 66 6 5 30 22 55 37 24 15 51 34 59 42 15 14 247 180
278 198 16 10 28 19 56 43 8 6 19 12 25 12 5 0 11 4 13 8 2 5 44 37 95 72 62
43 97 74 110 99 10 20 21 38 26 39 4 2 7 8 7 13 0 5 18 38 40 74 22 36 40 68
40 71 0 3 13 25 30 48 16 24 26 46 23 50 -4 3 -1 6 5 6 7 0 12 5 12 10 0 6 11
27 23 48 32 49 128 216 158 272 13 25 30 51 37 58 6 7 12 18 12 24 0 6 6 19
14 27 7 9 26 41 42 71 16 30 32 57 35 60 3 3 27 43 53 90 26 47 56 99 66 115
11 17 23 37 26 45 4 8 22 40 39 70 18 30 65 111 105 180 40 69 82 141 94 160
11 19 21 37 21 40 0 3 8 16 17 30 23 36 148 251 148 255 0 2 18 33 40 69 50
82 51 90 5 63z"/>
<path d="M1770 6961 c0 -6 4 -11 8 -11 4 0 13 -12 19 -27 13 -31 55 -105 64
-113 3 -3 12 -20 20 -37 8 -18 17 -33 21 -33 5 0 8 -4 8 -9 0 -5 23 -49 51
-98 29 -48 65 -113 82 -143 16 -30 36 -62 43 -71 8 -8 14 -21 14 -27 0 -6 6
-17 13 -24 6 -8 20 -29 30 -48 37 -68 52 -95 58 -100 3 -3 12 -18 21 -35 33
-65 53 -100 61 -103 4 -2 7 -8 7 -12 0 -5 14 -33 31 -62 39 -64 201 -345 237
-408 14 -25 34 -58 44 -75 10 -16 21 -37 25 -45 3 -8 18 -33 32 -55 13 -22 38
-65 54 -95 16 -30 34 -61 39 -68 16 -19 48 -75 54 -94 4 -10 10 -18 15 -18 5
0 8 -3 7 -7 -1 -5 24 -53 56 -108 33 -55 66 -113 75 -130 9 -16 19 -31 24 -33
4 -2 7 -8 7 -13 0 -5 18 -39 40 -75 22 -36 40 -68 40 -69 0 -6 201 -349 212
-362 6 -7 7 -13 4 -13 -4 0 0 -7 8 -16 9 -8 16 -22 16 -30 0 -8 4 -14 9 -14 5
0 14 -12 20 -27 6 -16 19 -41 29 -58 29 -47 235 -403 272 -470 18 -33 45 -78
58 -100 14 -22 39 -65 55 -95 16 -30 45 -79 63 -108 19 -29 34 -57 34 -62 0
-6 5 -10 12 -10 6 0 8 -3 5 -6 -4 -4 2 -19 12 -33 10 -14 21 -33 24 -41 4 -8
18 -33 32 -55 50 -81 95 -164 95 -174 0 -6 4 -11 9 -11 5 0 17 -17 26 -37 10
-21 21 -40 24 -43 6 -5 32 -51 70 -125 9 -16 19 -32 22 -35 3 -3 19 -30 36
-60 16 -30 62 -110 101 -178 40 -68 72 -127 72 -132 0 -6 4 -10 9 -10 5 0 11
-8 14 -17 4 -10 20 -40 37 -68 17 -27 33 -57 37 -65 4 -8 9 -17 12 -20 3 -3
15 -23 26 -45 11 -22 22 -42 25 -45 3 -3 50 -81 104 -175 53 -93 101 -177 106
-185 5 -8 40 -70 79 -137 39 -67 71 -127 71 -132 0 -6 4 -11 8 -11 5 0 19 -22
32 -50 13 -27 26 -50 30 -50 3 0 12 -16 20 -35 8 -19 17 -35 22 -35 4 0 8 -9
8 -19 0 -11 4 -21 8 -23 6 -2 92 -148 235 -398 11 -19 28 -48 38 -65 10 -16
23 -40 29 -52 5 -13 11 -23 13 -23 2 0 3 28 2 63 0 34 3 67 7 74 5 6 5 13 1
16 -10 6 -9 109 1 125 4 7 4 12 -1 12 -10 0 -9 132 1 148 4 7 4 12 -1 12 -10
0 -10 231 0 246 3 6 3 14 0 18 -10 10 -10 76 0 76 5 0 5 6 0 13 -11 18 -12 36
-2 43 5 3 6 11 2 17 -10 17 -10 197 1 197 5 0 4 6 -1 13 -10 14 -10 148 1 165
4 7 4 12 -1 12 -10 0 -9 132 1 148 4 7 4 12 -1 12 -10 0 -10 231 0 246 3 6 3
14 0 18 -10 10 -10 76 0 76 5 0 5 6 0 13 -11 18 -12 36 -2 43 5 3 6 11 2 17
-10 17 -10 197 1 197 5 0 4 6 -1 13 -10 14 -10 148 1 165 4 7 4 12 -1 12 -10
0 -9 132 1 148 4 7 4 12 -1 12 -10 0 -10 231 0 246 3 6 3 14 0 18 -10 10 -10
76 0 76 5 0 5 6 0 13 -11 18 -12 36 -2 43 5 3 6 11 2 17 -10 17 -10 197 1 197
5 0 4 6 -1 13 -10 14 -10 148 1 165 4 7 4 12 -1 12 -10 0 -9 132 1 148 4 7 4
12 -1 12 -10 0 -10 231 0 247 4 6 3 14 -2 17 -5 3 -7 20 -5 38 4 32 1 36 -143
137 -82 57 -165 117 -185 133 -20 15 -42 28 -47 28 -6 0 -11 3 -11 8 0 4 -18
18 -40 32 -22 14 -40 28 -40 33 0 4 -4 5 -10 2 -5 -3 -10 -3 -10 2 0 4 -17 19
-38 33 -20 14 -43 31 -50 37 -7 7 -16 13 -20 13 -4 0 -19 10 -34 23 -15 12
-57 42 -93 67 -36 25 -116 81 -178 125 -62 45 -145 104 -185 133 -40 29 -77
52 -82 52 -6 0 -10 4 -10 9 0 6 -18 20 -40 32 -22 13 -40 26 -40 31 0 4 -6 8
-14 8 -8 0 -16 4 -18 8 -1 5 -35 31 -74 58 -81 55 -412 290 -461 326 -17 13
-41 30 -53 38 -12 8 -33 23 -45 33 -13 9 -26 17 -30 17 -3 0 -20 13 -38 30
-18 16 -35 30 -39 30 -8 0 -184 126 -206 147 -7 7 -19 13 -27 13 -7 0 -15 3
-17 8 -3 7 -82 67 -138 104 -14 10 -43 31 -65 48 -22 16 -47 33 -55 37 -8 3
-17 9 -20 13 -3 3 -54 41 -115 83 -60 43 -118 84 -128 92 -9 8 -20 15 -23 15
-4 0 -112 78 -124 90 -3 3 -12 10 -21 15 -28 17 -144 98 -149 104 -3 3 -34 26
-70 51 -36 24 -66 48 -68 52 -2 4 -10 8 -17 8 -7 0 -15 3 -17 8 -1 4 -32 27
-68 51 -36 25 -67 48 -70 52 -3 3 -30 23 -60 43 -30 20 -65 43 -77 52 -14 10
-23 12 -23 5z"/>
<path d="M9420 6960 c0 -7 -3 -11 -6 -7 -4 3 -30 -12 -59 -34 -28 -21 -57 -39
-64 -39 -7 0 -9 -4 -6 -10 3 -5 1 -10 -4 -10 -10 0 -260 -173 -293 -203 -9 -9
-27 -21 -39 -28 -13 -6 -28 -16 -33 -21 -18 -15 -219 -158 -248 -176 -16 -9
-28 -20 -28 -24 0 -5 -5 -8 -11 -8 -6 0 -24 -10 -39 -22 -15 -13 -36 -29 -46
-36 -34 -23 -159 -111 -169 -120 -6 -5 -24 -17 -40 -28 -17 -10 -32 -21 -35
-25 -3 -3 -34 -25 -70 -49 -36 -24 -69 -48 -75 -52 -43 -35 -106 -78 -114 -78
-5 0 -11 -4 -13 -8 -1 -4 -39 -33 -83 -64 -44 -32 -85 -62 -92 -68 -7 -5 -15
-10 -17 -10 -3 0 -14 -7 -23 -15 -10 -8 -49 -37 -88 -64 -38 -28 -76 -55 -82
-61 -7 -6 -13 -8 -13 -5 0 3 -10 -4 -22 -15 -13 -12 -51 -40 -85 -62 -35 -23
-63 -45 -63 -49 0 -5 -5 -9 -11 -9 -6 0 -23 -9 -37 -21 -15 -11 -65 -48 -112
-80 -47 -33 -94 -67 -105 -75 -11 -8 -90 -63 -175 -124 -85 -60 -159 -112
-165 -117 -9 -7 -95 -69 -249 -177 -23 -16 -44 -34 -48 -40 -4 -6 -8 -7 -8 -2
0 4 -20 -8 -44 -28 -24 -20 -49 -36 -54 -36 -6 0 -12 -4 -14 -8 -1 -4 -38 -32
-80 -62 -43 -30 -128 -91 -190 -135 -62 -44 -114 -83 -116 -87 -2 -5 -8 -8
-13 -8 -6 0 -15 -4 -22 -10 -42 -35 -79 -61 -127 -93 -30 -21 -51 -37 -46 -37
5 0 3 -7 -4 -15 -7 -8 -9 -15 -4 -15 11 0 11 -131 0 -148 -4 -7 -3 -12 1 -12
11 0 9 -192 -2 -210 -6 -9 -4 -11 6 -5 12 8 12 6 0 -8 -7 -9 -10 -17 -5 -17 5
0 9 -47 9 -105 0 -58 -4 -105 -8 -105 -5 0 -5 -6 0 -12 10 -17 10 -98 0 -105
-4 -2 -4 -10 0 -16 10 -16 10 -77 0 -77 -5 0 -5 -6 0 -12 12 -21 12 -38 0 -38
-8 0 -8 -3 -2 -8 12 -8 14 -212 2 -212 -5 0 -5 -6 0 -12 10 -17 10 -98 0 -105
-4 -2 -4 -10 0 -16 10 -16 10 -77 0 -77 -5 0 -5 -6 0 -12 11 -18 10 -32 -2
-40 -6 -5 -7 -8 0 -8 12 0 13 -209 1 -228 -4 -7 -4 -12 1 -12 10 0 9 -132 -1
-148 -4 -7 -4 -12 1 -12 10 0 9 -132 -1 -148 -4 -7 -4 -12 1 -12 10 0 9 -132
-1 -148 -4 -7 -4 -12 1 -12 10 0 10 -231 0 -246 -3 -6 -3 -14 0 -18 10 -10 10
-76 0 -76 -5 0 -5 -6 0 -12 12 -21 12 -38 0 -38 -8 0 -8 -3 -2 -8 12 -9 14
-212 1 -212 -5 0 -4 -6 1 -12 10 -15 10 -109 -1 -126 -4 -7 -3 -12 1 -12 10 0
10 -111 0 -126 -3 -6 -3 -14 0 -18 10 -10 10 -76 0 -76 -5 0 -5 -6 0 -12 12
-21 12 -38 0 -38 -8 0 -8 -3 -2 -8 12 -9 14 -212 1 -212 -5 0 -4 -6 1 -12 10
-14 10 -214 0 -224 -3 -4 -2 -15 3 -25 7 -12 6 -19 -3 -22 -8 -4 -7 -6 3 -6 9
-1 33 32 60 81 25 45 50 86 55 92 6 6 16 22 22 36 7 14 25 48 41 75 16 28 46
79 67 115 21 36 47 81 58 100 11 19 28 49 38 65 20 34 32 55 79 140 18 33 37
66 43 73 5 7 17 26 26 43 9 16 63 111 121 211 58 100 109 191 115 202 5 12 12
23 16 26 3 3 19 30 36 60 17 30 47 83 67 117 20 34 36 66 36 72 0 6 4 11 8 11
4 0 18 19 31 43 38 71 74 135 184 324 58 100 114 197 124 215 10 18 20 35 23
38 6 6 25 39 53 93 11 23 24 44 27 47 4 3 20 30 35 60 16 30 42 74 58 98 15
23 24 42 20 42 -4 0 -3 4 2 8 6 4 16 18 23 31 8 13 22 38 32 55 57 103 115
202 121 206 3 3 8 10 10 15 7 17 118 212 161 283 11 17 16 32 11 32 -4 0 0 5
10 11 9 5 17 14 17 18 0 9 154 276 171 297 5 6 6 14 2 17 -3 4 -1 7 5 7 7 0
12 7 12 15 0 8 5 15 10 15 6 0 10 5 10 11 0 6 10 25 22 42 13 18 22 33 20 35
-1 1 19 39 45 84 27 45 47 86 45 90 -1 4 2 8 7 8 5 0 16 12 24 28 7 15 23 43
34 63 147 255 192 335 228 394 23 39 45 77 48 85 4 8 15 29 26 45 16 27 33 55
73 126 7 13 15 26 18 29 3 3 15 23 27 45 11 22 30 56 42 75 11 19 26 46 33 60
7 14 18 31 25 38 7 7 13 20 13 28 0 8 3 14 8 14 4 0 16 19 27 43 11 23 22 44
25 47 5 5 7 8 79 135 25 44 50 88 56 97 5 9 33 56 60 104 28 48 62 108 77 133
16 25 31 53 35 61 3 8 18 33 31 55 14 22 39 65 55 95 17 30 33 57 36 60 4 3
18 26 31 52 14 25 63 113 110 194 47 81 96 165 108 188 13 23 37 63 54 90 16
26 27 51 24 54 -3 3 -6 -1 -6 -8z"/>
</g>
</svg>
